<?xml version="1.0" encoding="UTF-8" standalone="no"?>
<svg
   viewBox="0 0 48 47.99928"
   version="1.1"
   id="svg24"
   sodipodi:docname="radio_tower_playing_white.svg"
   inkscape:version="1.1.1 (3bf5ae0d25, 2021-09-20)"
   xmlns:inkscape="http://www.inkscape.org/namespaces/inkscape"
   xmlns:sodipodi="http://sodipodi.sourceforge.net/DTD/sodipodi-0.dtd"
   xmlns="http://www.w3.org/2000/svg"
   xmlns:svg="http://www.w3.org/2000/svg"
   xmlns:rdf="http://www.w3.org/1999/02/22-rdf-syntax-ns#"
   xmlns:cc="http://creativecommons.org/ns#"
   xmlns:dc="http://purl.org/dc/elements/1.1/">
  <sodipodi:namedview
     id="namedview26"
     pagecolor="#ffffff"
     bordercolor="#666666"
     borderopacity="1.0"
     inkscape:pageshadow="2"
     inkscape:pageopacity="0.0"
     inkscape:pagecheckerboard="0"
     showgrid="false"
     inkscape:zoom="17.333594"
     inkscape:cx="24.028485"
     inkscape:cy="23.970793"
     inkscape:window-width="1920"
     inkscape:window-height="1009"
     inkscape:window-x="-8"
     inkscape:window-y="-8"
     inkscape:window-maximized="1"
     inkscape:current-layer="svg24" />
  <defs
     id="defs4">
    <style
       id="style2">.cls-1{fill:#418fde;}</style>
  </defs>
  <title
     id="title6">radio tower playing</title>
  <g
     id="Layer_2"
     data-name="Layer 2">
    <g
       id="Icons">
      <path
         class="cls-1"
         d="M38,43.99928H33.54883L26.36621,17.1946a4,4,0,1,0-4.73242,0L14.45117,43.99928H10a2,2,0,0,0,0,4H38a2,2,0,0,0,0-4Zm-16.69067-14h5.38134l1.60767,6H19.70166Zm.804-3L24,19.95827l1.88672,7.041Zm-3.21557,12H29.10229l1.33985,5H17.55786Z"
         id="path8"
         style="fill:#ffffff" />
      <path
         class="cls-1"
         d="M3,13.553a15.66928,15.66928,0,0,1,4.56409-10.956A1.52478,1.52478,0,0,0,7.53564.43385,1.54029,1.54029,0,0,0,5.364.46217,18.6304,18.6304,0,0,0,0,13.553,18.75989,18.75989,0,0,0,5.35425,26.52663,1.53308,1.53308,0,0,0,7.574,24.41139,15.79115,15.79115,0,0,1,3,13.553Z"
         id="path10"
         style="fill:#ffffff" />
      <path
         class="cls-1"
         d="M12.21655,19.47633a1.50843,1.50843,0,0,0,2.1687.11963,1.60641,1.60641,0,0,0,.11646-2.22558A5.85676,5.85676,0,0,1,13,13.55739a5.83823,5.83823,0,0,1,1.58411-3.90332A1.60489,1.60489,0,0,0,14.5155,7.427a1.50466,1.50466,0,0,0-2.16955.0708,9.00487,9.00487,0,0,0-.1294,11.97851Z"
         id="path12"
         style="fill:#ffffff" />
      <path
         class="cls-1"
         d="M8.44873,22.53639a1.38431,1.38431,0,0,0,2.00439.06494,1.50544,1.50544,0,0,0,.06238-2.0747A10.19982,10.19982,0,0,1,8,13.55055a10.182,10.182,0,0,1,2.60327-7.0664,1.50422,1.50422,0,0,0-.03711-2.07471A1.38253,1.38253,0,0,0,8.56177,4.448a13.42146,13.42146,0,0,0-.113,18.08838Z"
         id="path14"
         style="fill:#ffffff" />
      <path
         class="cls-1"
         d="M42.65723.46217a1.52967,1.52967,0,1,0-2.19141,2.13477A15.68905,15.68905,0,0,1,45,13.553a15.843,15.843,0,0,1-4.57568,10.8584,1.52991,1.52991,0,1,0,2.21093,2.11524A18.82961,18.82961,0,0,0,48,13.553,18.66857,18.66857,0,0,0,42.65723.46217Z"
         id="path16"
         style="fill:#ffffff" />
      <path
         class="cls-1"
         d="M35,13.55739a5.83507,5.83507,0,0,1-1.59705,3.813,1.57609,1.57609,0,0,0,2.34546,2.106A8.83033,8.83033,0,0,0,38,13.55739a8.702,8.702,0,0,0-2.276-6.05957,1.57529,1.57529,0,1,0-2.29712,2.15625A5.70611,5.70611,0,0,1,35,13.55739Z"
         id="path18"
         style="fill:#ffffff" />
      <path
         class="cls-1"
         d="M40,13.55055a9.99376,9.99376,0,0,1-2.60242,6.97608,1.46763,1.46763,0,1,0,2.13929,2.00976A12.98334,12.98334,0,0,0,43,13.55055,12.86531,12.86531,0,0,0,39.52368,4.448a1.46721,1.46721,0,1,0-2.113,2.03614A9.89093,9.89093,0,0,1,40,13.55055Z"
         id="path20"
         style="fill:#ffffff" />
    </g>
  </g>
  <metadata
     id="metadata938">
    <rdf:RDF>
      <cc:Work
         rdf:about="">
        <dc:title>radio tower playing</dc:title>
      </cc:Work>
    </rdf:RDF>
  </metadata>
</svg>
