<?xml version="1.0" encoding="UTF-8" standalone="no"?>
<svg
   xmlns:dc="http://purl.org/dc/elements/1.1/"
   xmlns:cc="http://creativecommons.org/ns#"
   xmlns:rdf="http://www.w3.org/1999/02/22-rdf-syntax-ns#"
   xmlns:svg="http://www.w3.org/2000/svg"
   xmlns="http://www.w3.org/2000/svg"
   xmlns:sodipodi="http://sodipodi.sourceforge.net/DTD/sodipodi-0.dtd"
   xmlns:inkscape="http://www.inkscape.org/namespaces/inkscape"
   viewBox="0 0 48 47.99928"
   version="1.1"
   id="svg24"
   sodipodi:docname="radio_tower_playing.svg"
   inkscape:version="0.92.2 (5c3e80d, 2017-08-06)">
  <sodipodi:namedview
     id="namedview26"
     pagecolor="#ffffff"
     bordercolor="#666666"
     borderopacity="1.0"
     inkscape:pageshadow="2"
     inkscape:pageopacity="0.0"
     inkscape:pagecheckerboard="0"
     showgrid="false"
     inkscape:zoom="17.333594"
     inkscape:cx="12.547888"
     inkscape:cy="23.970794"
     inkscape:window-width="1680"
     inkscape:window-height="979"
     inkscape:window-x="1912"
     inkscape:window-y="18"
     inkscape:window-maximized="1"
     inkscape:current-layer="svg24" />
  <defs
     id="defs4">
    <style
       id="style2">.cls-1{fill:#418fde;}</style>
  </defs>
  <title
     id="title6">radio tower playing</title>
  <path
     style="fill:#000000"
     d="M 41.560547 -0.001953125 A 1.52967 1.52967 0 0 0 40.464844 2.5976562 A 15.68905 15.68905 0 0 1 45 13.552734 A 15.843 15.843 0 0 1 40.423828 24.412109 A 1.52991 1.52991 0 1 0 42.634766 26.527344 A 18.82961 18.82961 0 0 0 48 13.552734 A 18.66857 18.66857 0 0 0 42.658203 0.46289062 A 1.52967 1.52967 0 0 0 41.560547 -0.001953125 z M 6.4160156 0 A 1.54029 1.54029 0 0 0 5.3632812 0.46289062 A 18.6304 18.6304 0 0 0 0 13.552734 A 18.75989 18.75989 0 0 0 5.3535156 26.527344 A 1.5330958 1.5330958 0 0 0 7.5742188 24.412109 A 15.79115 15.79115 0 0 1 3 13.552734 A 15.66928 15.66928 0 0 1 7.5644531 2.5976562 A 1.52478 1.52478 0 0 0 7.5351562 0.43359375 A 1.54029 1.54029 0 0 0 6.4160156 0 z M 38.474609 3.9941406 A 1.46721 1.46721 0 0 0 37.410156 6.484375 A 9.89093 9.89093 0 0 1 40 13.550781 A 9.99376 9.99376 0 0 1 37.398438 20.527344 A 1.46763 1.46763 0 1 0 39.537109 22.537109 A 12.98334 12.98334 0 0 0 43 13.550781 A 12.86531 12.86531 0 0 0 39.523438 4.4472656 A 1.46721 1.46721 0 0 0 38.474609 3.9941406 z M 9.5703125 3.9980469 A 1.38253 1.38253 0 0 0 8.5625 4.4472656 A 13.42146 13.42146 0 0 0 8.4492188 22.537109 A 1.38431 1.38431 0 0 0 10.453125 22.601562 A 1.50544 1.50544 0 0 0 10.515625 20.527344 A 10.19982 10.19982 0 0 1 8 13.550781 A 10.182 10.182 0 0 1 10.603516 6.484375 A 1.50422 1.50422 0 0 0 10.566406 4.4101562 A 1.38253 1.38253 0 0 0 9.5703125 3.9980469 z M 13.423828 7 A 1.50466 1.50466 0 0 0 12.345703 7.4980469 A 9.00487 9.00487 0 0 0 12.216797 19.476562 A 1.50843 1.50843 0 0 0 14.384766 19.595703 A 1.60641 1.60641 0 0 0 14.501953 17.371094 A 5.85676 5.85676 0 0 1 13 13.556641 A 5.83823 5.83823 0 0 1 14.583984 9.6542969 A 1.60489 1.60489 0 0 0 14.515625 7.4277344 A 1.50466 1.50466 0 0 0 13.423828 7 z M 34.601562 7 A 1.5752916 1.5752916 0 0 0 33.427734 9.6542969 A 5.70611 5.70611 0 0 1 35 13.556641 A 5.83507 5.83507 0 0 1 33.402344 17.371094 A 1.5761043 1.5761043 0 0 0 35.748047 19.476562 A 8.83033 8.83033 0 0 0 38 13.556641 A 8.702 8.702 0 0 0 35.724609 7.4980469 A 1.5752916 1.5752916 0 0 0 34.601562 7 z M 24.035156 9.96875 A 4 4 0 0 0 21.634766 17.195312 L 14.451172 44 L 10 44 A 2 2 0 0 0 10 48 L 38 48 A 2 2 0 0 0 38 44 L 33.548828 44 L 26.365234 17.195312 A 4 4 0 0 0 24.035156 9.96875 z M 24 19.958984 L 25.886719 27 L 22.113281 27 L 24 19.958984 z M 21.308594 30 L 26.691406 30 L 28.298828 36 L 19.701172 36 L 21.308594 30 z M 18.898438 39 L 29.101562 39 L 30.441406 44 L 17.558594 44 L 18.898438 39 z "
     id="path8" />
  <metadata
     id="metadata938">
    <rdf:RDF>
      <cc:Work
         rdf:about="">
        <dc:title>radio tower playing</dc:title>
        <dc:format>image/svg+xml</dc:format>
        <dc:type
           rdf:resource="http://purl.org/dc/dcmitype/StillImage" />
      </cc:Work>
    </rdf:RDF>
  </metadata>
</svg>
